<?xml version="1.0" encoding="UTF-8"?>
<svg xmlns="http://www.w3.org/2000/svg" viewBox="0 0 1400 520"
     style="background:#fff; font-family: 'Microsoft YaHei', 'SimHei', Arial, sans-serif;">
  <text x="700" y="25" text-anchor="middle" font-size="18" font-weight="bold" fill="#333">
    688256.SH 过去一年每日收盘价走势
  </text>
  <text x="700" y="50" text-anchor="middle" font-size="12" fill="#999">
    区间: 20250630 ~ 20260629 | 242 个交易日
  </text>

  <!-- Y轴网格与标签 -->
  <text x="90" y="464.0" text-anchor="end" font-size="11" fill="#555">389</text><line x1="100" y1="460.0" x2="1380" y2="460.0" stroke="#e0e0e0" stroke-width="0.5"/><text x="90" y="380.0" text-anchor="end" font-size="11" fill="#555">712</text><line x1="100" y1="376.0" x2="1380" y2="376.0" stroke="#e0e0e0" stroke-width="0.5"/><text x="90" y="296.0" text-anchor="end" font-size="11" fill="#555">1034</text><line x1="100" y1="292.0" x2="1380" y2="292.0" stroke="#e0e0e0" stroke-width="0.5"/><text x="90" y="211.99999999999997" text-anchor="end" font-size="11" fill="#555">1357</text><line x1="100" y1="208.0" x2="1380" y2="208.0" stroke="#e0e0e0" stroke-width="0.5"/><text x="90" y="128.00000000000003" text-anchor="end" font-size="11" fill="#555">1680</text><line x1="100" y1="124.0" x2="1380" y2="124.0" stroke="#e0e0e0" stroke-width="0.5"/><text x="90" y="44.0" text-anchor="end" font-size="11" fill="#555">2002</text><line x1="100" y1="40.0" x2="1380" y2="40.0" stroke="#e0e0e0" stroke-width="0.5"/>

  <!-- 填充区域 -->
  <polygon points="100.0,460.0 100.0,404.7 105.3,414.7 110.6,419.4 115.9,418.8 121.2,418.8 126.6,420.3 131.9,420.0 137.2,422.0 142.5,425.0 147.8,417.1 153.1,414.2 158.4,417.3 163.7,410.2 169.0,409.7 174.4,409.6 179.7,409.8 185.0,406.7 190.3,406.2 195.6,405.0 200.9,386.0 206.2,384.5 211.5,376.2 216.8,383.0 222.2,376.6 227.5,381.9 232.8,381.9 238.1,380.4 243.4,380.5 248.7,378.3 254.0,380.9 259.3,377.1 264.6,340.3 270.0,337.4 275.3,314.2 280.6,320.8 285.9,314.0 291.2,318.1 296.5,297.6 301.8,291.6 307.1,237.6 312.4,200.8 317.8,215.3 323.1,204.1 328.4,147.9 333.7,172.8 339.0,184.2 344.3,176.0 349.6,195.5 354.9,248.4 360.2,227.7 365.6,245.6 370.9,241.6 376.2,229.9 381.5,200.2 386.8,173.9 392.1,186.4 397.4,186.4 402.7,185.9 408.0,191.4 413.4,210.0 418.7,197.4 424.0,209.7 429.3,203.6 434.6,200.3 439.9,212.7 445.2,216.7 450.5,216.4 455.9,214.3 461.2,236.6 466.5,232.7 471.8,249.9 477.1,238.0 482.4,229.6 487.7,236.5 493.0,227.8 498.3,204.9 503.7,189.2 509.0,197.1 514.3,164.3 519.6,162.8 524.9,176.4 530.2,181.0 535.5,191.1 540.8,203.3 546.1,210.7 551.5,212.6 556.8,210.4 562.1,176.0 567.4,188.4 572.7,199.0 578.0,215.1 583.3,205.7 588.6,200.8 593.9,216.4 599.3,222.1 604.6,215.9 609.9,214.5 615.2,217.1 620.5,236.1 625.8,232.8 631.1,233.3 636.4,219.0 641.7,218.3 647.1,214.8 652.4,206.6 657.7,215.4 663.0,214.5 668.3,204.9 673.6,208.5 678.9,192.2 684.2,187.5 689.5,191.4 694.9,201.5 700.2,211.4 705.5,214.6 710.8,229.7 716.1,218.8 721.4,226.2 726.7,231.2 732.0,226.8 737.3,213.5 742.7,216.0 748.0,217.8 753.3,221.8 758.6,207.6 763.9,192.7 769.2,208.4 774.5,199.4 779.8,201.2 785.1,198.2 790.5,185.4 795.8,173.1 801.1,168.2 806.4,194.7 811.7,186.6 817.0,192.9 822.3,190.6 827.6,191.7 832.9,211.7 838.3,208.8 843.6,209.1 848.9,213.8 854.2,222.9 859.5,222.6 864.8,227.3 870.1,235.4 875.4,233.6 880.7,238.0 886.1,267.6 891.4,283.3 896.7,285.8 902.0,291.3 907.3,278.4 912.6,274.7 917.9,280.4 923.2,271.7 928.5,269.5 933.9,282.3 939.2,279.4 944.5,257.0 949.8,254.6 955.1,251.0 960.4,266.3 965.7,270.5 971.0,257.2 976.3,260.6 981.7,268.2 987.0,262.7 992.3,275.2 997.6,275.2 1002.9,275.9 1008.2,277.5 1013.5,280.1 1018.8,283.8 1024.1,291.3 1029.5,294.4 1034.8,308.4 1040.1,293.5 1045.4,290.8 1050.7,294.5 1056.0,294.7 1061.3,298.5 1066.6,305.4 1072.0,287.6 1077.3,301.2 1082.6,294.3 1087.9,270.0 1093.2,258.3 1098.5,249.4 1103.8,246.1 1109.1,243.8 1114.4,238.0 1119.8,229.6 1125.1,221.0 1130.4,214.0 1135.7,202.5 1141.0,215.1 1146.3,213.2 1151.6,216.9 1156.9,209.2 1162.2,208.1 1167.6,203.5 1172.9,192.5 1178.2,118.7 1183.5,86.2 1188.8,75.0 1194.1,253.4 1199.4,248.9 1204.7,228.6 1210.0,218.5 1215.4,233.1 1220.7,246.6 1226.0,244.5 1231.3,217.9 1236.6,206.6 1241.9,225.2 1247.2,226.5 1252.5,195.1 1257.8,194.0 1263.2,212.4 1268.5,199.0 1273.8,220.3 1279.1,239.0 1284.4,222.9 1289.7,202.5 1295.0,207.5 1300.3,223.1 1305.6,235.8 1311.0,230.7 1316.3,240.8 1321.6,243.8 1326.9,238.5 1332.2,213.8 1337.5,221.0 1342.8,217.7 1348.1,168.9 1353.4,182.0 1358.8,193.4 1364.1,183.0 1369.4,169.5 1374.7,181.7 1380.0,175.5 1380.0,460.0" fill="#d32f2f" fill-opacity="0.08"/>

  <!-- 折线 -->
  <polyline points="100.0,404.7 105.3,414.7 110.6,419.4 115.9,418.8 121.2,418.8 126.6,420.3 131.9,420.0 137.2,422.0 142.5,425.0 147.8,417.1 153.1,414.2 158.4,417.3 163.7,410.2 169.0,409.7 174.4,409.6 179.7,409.8 185.0,406.7 190.3,406.2 195.6,405.0 200.9,386.0 206.2,384.5 211.5,376.2 216.8,383.0 222.2,376.6 227.5,381.9 232.8,381.9 238.1,380.4 243.4,380.5 248.7,378.3 254.0,380.9 259.3,377.1 264.6,340.3 270.0,337.4 275.3,314.2 280.6,320.8 285.9,314.0 291.2,318.1 296.5,297.6 301.8,291.6 307.1,237.6 312.4,200.8 317.8,215.3 323.1,204.1 328.4,147.9 333.7,172.8 339.0,184.2 344.3,176.0 349.6,195.5 354.9,248.4 360.2,227.7 365.6,245.6 370.9,241.6 376.2,229.9 381.5,200.2 386.8,173.9 392.1,186.4 397.4,186.4 402.7,185.9 408.0,191.4 413.4,210.0 418.7,197.4 424.0,209.7 429.3,203.6 434.6,200.3 439.9,212.7 445.2,216.7 450.5,216.4 455.9,214.3 461.2,236.6 466.5,232.7 471.8,249.9 477.1,238.0 482.4,229.6 487.7,236.5 493.0,227.8 498.3,204.9 503.7,189.2 509.0,197.1 514.3,164.3 519.6,162.8 524.9,176.4 530.2,181.0 535.5,191.1 540.8,203.3 546.1,210.7 551.5,212.6 556.8,210.4 562.1,176.0 567.4,188.4 572.7,199.0 578.0,215.1 583.3,205.7 588.6,200.8 593.9,216.4 599.3,222.1 604.6,215.9 609.9,214.5 615.2,217.1 620.5,236.1 625.8,232.8 631.1,233.3 636.4,219.0 641.7,218.3 647.1,214.8 652.4,206.6 657.7,215.4 663.0,214.5 668.3,204.9 673.6,208.5 678.9,192.2 684.2,187.5 689.5,191.4 694.9,201.5 700.2,211.4 705.5,214.6 710.8,229.7 716.1,218.8 721.4,226.2 726.7,231.2 732.0,226.8 737.3,213.5 742.7,216.0 748.0,217.8 753.3,221.8 758.6,207.6 763.9,192.7 769.2,208.4 774.5,199.4 779.8,201.2 785.1,198.2 790.5,185.4 795.8,173.1 801.1,168.2 806.4,194.7 811.7,186.6 817.0,192.9 822.3,190.6 827.6,191.7 832.9,211.7 838.3,208.8 843.6,209.1 848.9,213.8 854.2,222.9 859.5,222.6 864.8,227.3 870.1,235.4 875.4,233.6 880.7,238.0 886.1,267.6 891.4,283.3 896.7,285.8 902.0,291.3 907.3,278.4 912.6,274.7 917.9,280.4 923.2,271.7 928.5,269.5 933.9,282.3 939.2,279.4 944.5,257.0 949.8,254.6 955.1,251.0 960.4,266.3 965.7,270.5 971.0,257.2 976.3,260.6 981.7,268.2 987.0,262.7 992.3,275.2 997.6,275.2 1002.9,275.9 1008.2,277.5 1013.5,280.1 1018.8,283.8 1024.1,291.3 1029.5,294.4 1034.8,308.4 1040.1,293.5 1045.4,290.8 1050.7,294.5 1056.0,294.7 1061.3,298.5 1066.6,305.4 1072.0,287.6 1077.3,301.2 1082.6,294.3 1087.9,270.0 1093.2,258.3 1098.5,249.4 1103.8,246.1 1109.1,243.8 1114.4,238.0 1119.8,229.6 1125.1,221.0 1130.4,214.0 1135.7,202.5 1141.0,215.1 1146.3,213.2 1151.6,216.9 1156.9,209.2 1162.2,208.1 1167.6,203.5 1172.9,192.5 1178.2,118.7 1183.5,86.2 1188.8,75.0 1194.1,253.4 1199.4,248.9 1204.7,228.6 1210.0,218.5 1215.4,233.1 1220.7,246.6 1226.0,244.5 1231.3,217.9 1236.6,206.6 1241.9,225.2 1247.2,226.5 1252.5,195.1 1257.8,194.0 1263.2,212.4 1268.5,199.0 1273.8,220.3 1279.1,239.0 1284.4,222.9 1289.7,202.5 1295.0,207.5 1300.3,223.1 1305.6,235.8 1311.0,230.7 1316.3,240.8 1321.6,243.8 1326.9,238.5 1332.2,213.8 1337.5,221.0 1342.8,217.7 1348.1,168.9 1353.4,182.0 1358.8,193.4 1364.1,183.0 1369.4,169.5 1374.7,181.7 1380.0,175.5" fill="none" stroke="#d32f2f" stroke-width="2"
            stroke-linejoin="round" stroke-linecap="round"/>

  <!-- 最高/最低标注 -->
  
    <text x="1188.8" y="60.000000000000014" text-anchor="middle"
          font-size="12" fill="#d32f2f" font-weight="bold">最高 ¥1868.00</text>
    <circle cx="1188.8" cy="75.0" r="4" fill="#d32f2f"/>
    <text x="142.5" y="447.0" text-anchor="middle"
          font-size="12" fill="#2e7d32" font-weight="bold">最低 ¥523.50</text>
    <circle cx="142.5" cy="425.0" r="4" fill="#2e7d32"/>
    

  <!-- X轴标签 -->
  <text x="100.0" y="480" text-anchor="middle" font-size="10" fill="#888">2025-06</text><text x="105.3" y="480" text-anchor="middle" font-size="10" fill="#888">2025-07</text><text x="227.5" y="480" text-anchor="middle" font-size="10" fill="#888">2025-08</text><text x="339.0" y="480" text-anchor="middle" font-size="10" fill="#888">2025-09</text><text x="455.9" y="480" text-anchor="middle" font-size="10" fill="#888">2025-10</text><text x="546.1" y="480" text-anchor="middle" font-size="10" fill="#888">2025-11</text><text x="652.4" y="480" text-anchor="middle" font-size="10" fill="#888">2025-12</text><text x="774.5" y="480" text-anchor="middle" font-size="10" fill="#888">2026-01</text><text x="880.7" y="480" text-anchor="middle" font-size="10" fill="#888">2026-02</text><text x="955.1" y="480" text-anchor="middle" font-size="10" fill="#888">2026-03</text><text x="1072.0" y="480" text-anchor="middle" font-size="10" fill="#888">2026-04</text><text x="1183.5" y="480" text-anchor="middle" font-size="10" fill="#888">2026-05</text><text x="1279.1" y="480" text-anchor="middle" font-size="10" fill="#888">2026-06</text>

  <!-- 底部图例 -->
  <text x="700" y="512" text-anchor="middle" font-size="11" fill="#999">
    数据来源: Tushare Pro | 涨跌: +880.50 (+146.38%)
  </text>
</svg>